<?xml version="1.0" encoding="UTF-8" standalone="no"?>
<!DOCTYPE svg PUBLIC "-//W3C//DTD SVG 1.1//EN"
 "http://www.w3.org/Graphics/SVG/1.1/DTD/svg11.dtd">
<!-- Generated by graphviz version 2.28.0 (20130415.2246)
 -->
<!-- Title: controllers_diagram Pages: 1 -->
<svg width="1657pt" height="1206pt"
 viewBox="0.00 0.00 1656.97 1206.00" xmlns="http://www.w3.org/2000/svg" xmlns:xlink="http://www.w3.org/1999/xlink">
<g id="graph1" class="graph" transform="scale(1 1) rotate(0) translate(4 1202)">
<title>controllers_diagram</title>
<polygon fill="white" stroke="white" points="-4,5 -4,-1202 1653.97,-1202 1653.97,5 -4,5"/>
<!-- _diagram_info -->
<g id="node1" class="node"><title>_diagram_info</title>
<text text-anchor="start" x="63.7532" y="-1183.6" font-family="Times,serif" font-size="13.00">Controllers diagram</text>
<text text-anchor="start" x="63.7532" y="-1169.6" font-family="Times,serif" font-size="13.00">Date: Oct 31 2013 &#45; 15:49</text>
<text text-anchor="start" x="63.7532" y="-1155.6" font-family="Times,serif" font-size="13.00">Migration version: 20131029045753</text>
<text text-anchor="start" x="63.7532" y="-1141.6" font-family="Times,serif" font-size="13.00">Generated by RailRoady 1.1.1</text>
<text text-anchor="start" x="63.7532" y="-1127.6" font-family="Times,serif" font-size="13.00">http://railroady.prestonlee.com</text>
</g>
<!-- ApiController -->
<g id="node2" class="node"><title>ApiController</title>
<ellipse fill="none" stroke="black" cx="69.583" cy="-417.434" rx="63.5411" ry="18"/>
<text text-anchor="middle" x="69.583" y="-413.734" font-family="Times,serif" font-size="14.00">ApiController</text>
</g>
<!-- ApplicationController -->
<g id="node3" class="node"><title>ApplicationController</title>
<ellipse fill="none" stroke="black" cx="610.793" cy="-571.388" rx="93.3873" ry="18"/>
<text text-anchor="middle" x="610.793" y="-567.688" font-family="Times,serif" font-size="14.00">ApplicationController</text>
</g>
<!-- ApplicationController&#45;&gt;ApiController -->
<g id="edge2" class="edge"><title>ApplicationController&#45;&gt;ApiController</title>
<path fill="none" stroke="black" d="M557.165,-556.595C493.191,-538.902 383.034,-508.292 288.673,-481.342 228.097,-464.04 158.252,-443.578 114.02,-430.555"/>
</g>
<!-- BoardsController -->
<g id="node4" class="node"><title>BoardsController</title>
<ellipse fill="none" stroke="black" cx="517.446" cy="-18" rx="76.5394" ry="18"/>
<text text-anchor="middle" x="517.446" y="-14.3" font-family="Times,serif" font-size="14.00">BoardsController</text>
</g>
<!-- ApplicationController&#45;&gt;BoardsController -->
<g id="edge4" class="edge"><title>ApplicationController&#45;&gt;BoardsController</title>
<path fill="none" stroke="black" d="M607.036,-553.175C596.116,-499.879 563.806,-339.537 542.385,-205.547 532.481,-143.596 523.473,-69.6885 519.537,-36.1511"/>
</g>
<!-- BugsController -->
<g id="node5" class="node"><title>BugsController</title>
<ellipse fill="none" stroke="black" cx="392.652" cy="-1081.56" rx="69.3156" ry="18"/>
<text text-anchor="middle" x="392.652" y="-1077.86" font-family="Times,serif" font-size="14.00">BugsController</text>
</g>
<!-- ApplicationController&#45;&gt;BugsController -->
<g id="edge6" class="edge"><title>ApplicationController&#45;&gt;BugsController</title>
<path fill="none" stroke="black" d="M608.502,-589.71C601.483,-641.69 577.354,-793.672 522.718,-907.161 492.245,-970.461 437.392,-1033.84 409.673,-1063.77"/>
</g>
<!-- CommentsController -->
<g id="node6" class="node"><title>CommentsController</title>
<ellipse fill="none" stroke="black" cx="952.627" cy="-620.185" rx="90.0136" ry="18"/>
<text text-anchor="middle" x="952.627" y="-616.485" font-family="Times,serif" font-size="14.00">CommentsController</text>
</g>
<!-- ApplicationController&#45;&gt;CommentsController -->
<g id="edge8" class="edge"><title>ApplicationController&#45;&gt;CommentsController</title>
<path fill="none" stroke="black" d="M685.81,-582.097C743.197,-590.289 821.911,-601.525 878.96,-609.669"/>
</g>
<!-- CommitsController -->
<g id="node7" class="node"><title>CommitsController</title>
<ellipse fill="none" stroke="black" cx="286.297" cy="-734.141" rx="83.2649" ry="18"/>
<text text-anchor="middle" x="286.297" y="-730.441" font-family="Times,serif" font-size="14.00">CommitsController</text>
</g>
<!-- ApplicationController&#45;&gt;CommitsController -->
<g id="edge10" class="edge"><title>ApplicationController&#45;&gt;CommitsController</title>
<path fill="none" stroke="black" d="M577.288,-588.193C514.945,-619.461 381.824,-686.229 319.619,-717.428"/>
</g>
<!-- DocumentProjectsController -->
<g id="node8" class="node"><title>DocumentProjectsController</title>
<ellipse fill="none" stroke="black" cx="202.124" cy="-159.019" rx="117.935" ry="18"/>
<text text-anchor="middle" x="202.124" y="-155.319" font-family="Times,serif" font-size="14.00">DocumentProjectsController</text>
</g>
<!-- ApplicationController&#45;&gt;DocumentProjectsController -->
<g id="edge12" class="edge"><title>ApplicationController&#45;&gt;DocumentProjectsController</title>
<path fill="none" stroke="black" d="M593.233,-553.669C526.317,-486.147 287.666,-245.335 220.079,-177.136"/>
</g>
<!-- DocumentTasksController -->
<g id="node9" class="node"><title>DocumentTasksController</title>
<ellipse fill="none" stroke="black" cx="1108.64" cy="-389.391" rx="109.261" ry="18"/>
<text text-anchor="middle" x="1108.64" y="-385.691" font-family="Times,serif" font-size="14.00">DocumentTasksController</text>
</g>
<!-- ApplicationController&#45;&gt;DocumentTasksController -->
<g id="edge14" class="edge"><title>ApplicationController&#45;&gt;DocumentTasksController</title>
<path fill="none" stroke="black" d="M654.538,-555.397C748.38,-521.091 968.206,-440.73 1063.39,-405.936"/>
</g>
<!-- DropboxController -->
<g id="node10" class="node"><title>DropboxController</title>
<ellipse fill="none" stroke="black" cx="413.091" cy="-130.026" rx="84.2388" ry="18"/>
<text text-anchor="middle" x="413.091" y="-126.326" font-family="Times,serif" font-size="14.00">DropboxController</text>
</g>
<!-- ApplicationController&#45;&gt;DropboxController -->
<g id="edge16" class="edge"><title>ApplicationController&#45;&gt;DropboxController</title>
<path fill="none" stroke="black" d="M602.674,-553.263C570.631,-481.728 453.138,-219.429 421.169,-148.058"/>
</g>
<!-- EvaluationsController -->
<g id="node11" class="node"><title>EvaluationsController</title>
<ellipse fill="none" stroke="black" cx="890.599" cy="-112.869" rx="92.413" ry="18"/>
<text text-anchor="middle" x="890.599" y="-109.169" font-family="Times,serif" font-size="14.00">EvaluationsController</text>
</g>
<!-- ApplicationController&#45;&gt;EvaluationsController -->
<g id="edge18" class="edge"><title>ApplicationController&#45;&gt;EvaluationsController</title>
<path fill="none" stroke="black" d="M621.762,-553.414C666.421,-480.23 834.325,-205.084 879.402,-131.217"/>
</g>
<!-- GithubController -->
<g id="node12" class="node"><title>GithubController</title>
<ellipse fill="none" stroke="black" cx="620.028" cy="-205.587" rx="76.0649" ry="18"/>
<text text-anchor="middle" x="620.028" y="-201.887" font-family="Times,serif" font-size="14.00">GithubController</text>
</g>
<!-- ApplicationController&#45;&gt;GithubController -->
<g id="edge20" class="edge"><title>ApplicationController&#45;&gt;GithubController</title>
<path fill="none" stroke="black" d="M611.251,-553.248C612.823,-490.97 617.991,-286.281 619.568,-223.837"/>
</g>
<!-- GoalsController -->
<g id="node13" class="node"><title>GoalsController</title>
<ellipse fill="none" stroke="black" cx="71.2468" cy="-601.718" rx="71.2405" ry="18"/>
<text text-anchor="middle" x="71.2468" y="-598.018" font-family="Times,serif" font-size="14.00">GoalsController</text>
</g>
<!-- ApplicationController&#45;&gt;GoalsController -->
<g id="edge22" class="edge"><title>ApplicationController&#45;&gt;GoalsController</title>
<path fill="none" stroke="black" d="M521.092,-576.43C414.416,-582.427 238.604,-592.31 141.372,-597.776"/>
</g>
<!-- LabelsController -->
<g id="node14" class="node"><title>LabelsController</title>
<ellipse fill="none" stroke="black" cx="1156.95" cy="-557.887" rx="74.1402" ry="18"/>
<text text-anchor="middle" x="1156.95" y="-554.187" font-family="Times,serif" font-size="14.00">LabelsController</text>
</g>
<!-- ApplicationController&#45;&gt;LabelsController -->
<g id="edge24" class="edge"><title>ApplicationController&#45;&gt;LabelsController</title>
<path fill="none" stroke="black" d="M703.441,-569.098C810.568,-566.45 984.75,-562.144 1083.15,-559.712"/>
</g>
<!-- ProjectRoleUsersController -->
<g id="node16" class="node"><title>ProjectRoleUsersController</title>
<ellipse fill="none" stroke="black" cx="1123.34" cy="-750.313" rx="114.085" ry="18"/>
<text text-anchor="middle" x="1123.34" y="-746.613" font-family="Times,serif" font-size="14.00">ProjectRoleUsersController</text>
</g>
<!-- ApplicationController&#45;&gt;ProjectRoleUsersController -->
<g id="edge28" class="edge"><title>ApplicationController&#45;&gt;ProjectRoleUsersController</title>
<path fill="none" stroke="black" d="M656.278,-587.266C752.931,-621.007 977.928,-699.55 1076.11,-733.824"/>
</g>
<!-- ProjectStatusesController -->
<g id="node17" class="node"><title>ProjectStatusesController</title>
<ellipse fill="none" stroke="black" cx="700.899" cy="-1058.02" rx="105.411" ry="18"/>
<text text-anchor="middle" x="700.899" y="-1054.32" font-family="Times,serif" font-size="14.00">ProjectStatusesController</text>
</g>
<!-- ApplicationController&#45;&gt;ProjectStatusesController -->
<g id="edge30" class="edge"><title>ApplicationController&#45;&gt;ProjectStatusesController</title>
<path fill="none" stroke="black" d="M614.161,-589.577C628.378,-666.36 683.404,-963.538 697.562,-1040"/>
</g>
<!-- ProjectsController -->
<g id="node18" class="node"><title>ProjectsController</title>
<ellipse fill="none" stroke="black" cx="856.928" cy="-346.286" rx="78.9404" ry="18"/>
<text text-anchor="middle" x="856.928" y="-342.586" font-family="Times,serif" font-size="14.00">ProjectsController</text>
</g>
<!-- ApplicationController&#45;&gt;ProjectsController -->
<g id="edge32" class="edge"><title>ApplicationController&#45;&gt;ProjectsController</title>
<path fill="none" stroke="black" d="M630.107,-553.725C676.118,-511.645 791.783,-405.864 837.704,-363.867"/>
</g>
<!-- RequirementTemplatesController -->
<g id="node20" class="node"><title>RequirementTemplatesController</title>
<ellipse fill="none" stroke="black" cx="1037.58" cy="-225.394" rx="135.258" ry="18"/>
<text text-anchor="middle" x="1037.58" y="-221.694" font-family="Times,serif" font-size="14.00">RequirementTemplatesController</text>
</g>
<!-- ApplicationController&#45;&gt;RequirementTemplatesController -->
<g id="edge36" class="edge"><title>ApplicationController&#45;&gt;RequirementTemplatesController</title>
<path fill="none" stroke="black" d="M641.239,-554.357C701.575,-519.798 839.018,-436.992 937.819,-346.418 973.346,-313.849 1007.44,-268.462 1025.1,-243.552"/>
</g>
<!-- RequirementsController -->
<g id="node21" class="node"><title>RequirementsController</title>
<ellipse fill="none" stroke="black" cx="215.586" cy="-961.451" rx="101.087" ry="18"/>
<text text-anchor="middle" x="215.586" y="-957.751" font-family="Times,serif" font-size="14.00">RequirementsController</text>
</g>
<!-- ApplicationController&#45;&gt;RequirementsController -->
<g id="edge38" class="edge"><title>ApplicationController&#45;&gt;RequirementsController</title>
<path fill="none" stroke="black" d="M592.785,-589.162C526.947,-654.143 299.71,-878.422 233.699,-943.573"/>
</g>
<!-- RolesController -->
<g id="node22" class="node"><title>RolesController</title>
<ellipse fill="none" stroke="black" cx="98.8635" cy="-788.2" rx="70.2668" ry="18"/>
<text text-anchor="middle" x="98.8635" y="-784.5" font-family="Times,serif" font-size="14.00">RolesController</text>
</g>
<!-- ApplicationController&#45;&gt;RolesController -->
<g id="edge40" class="edge"><title>ApplicationController&#45;&gt;RolesController</title>
<path fill="none" stroke="black" d="M564.738,-587.158C491.788,-612.591 345.666,-665.389 226.037,-720.246 191.45,-736.106 153.101,-757.089 127.651,-771.52"/>
</g>
<!-- StatusesController -->
<g id="node24" class="node"><title>StatusesController</title>
<ellipse fill="none" stroke="black" cx="441.827" cy="-907.053" rx="78.9404" ry="18"/>
<text text-anchor="middle" x="441.827" y="-903.353" font-family="Times,serif" font-size="14.00">StatusesController</text>
</g>
<!-- ApplicationController&#45;&gt;StatusesController -->
<g id="edge44" class="edge"><title>ApplicationController&#45;&gt;StatusesController</title>
<path fill="none" stroke="black" d="M601.709,-589.435C572.371,-647.717 480.358,-830.508 450.956,-888.917"/>
</g>
<!-- TaskUsersController -->
<g id="node25" class="node"><title>TaskUsersController</title>
<ellipse fill="none" stroke="black" cx="352.725" cy="-467.574" rx="88.0886" ry="18"/>
<text text-anchor="middle" x="352.725" y="-463.874" font-family="Times,serif" font-size="14.00">TaskUsersController</text>
</g>
<!-- ApplicationController&#45;&gt;TaskUsersController -->
<g id="edge46" class="edge"><title>ApplicationController&#45;&gt;TaskUsersController</title>
<path fill="none" stroke="black" d="M570.186,-555.053C521.641,-535.524 440.922,-503.053 392.671,-483.643"/>
</g>
<!-- TasksController -->
<g id="node26" class="node"><title>TasksController</title>
<ellipse fill="none" stroke="black" cx="206.576" cy="-324.353" rx="70.2668" ry="18"/>
<text text-anchor="middle" x="206.576" y="-320.653" font-family="Times,serif" font-size="14.00">TasksController</text>
</g>
<!-- ApplicationController&#45;&gt;TasksController -->
<g id="edge48" class="edge"><title>ApplicationController&#45;&gt;TasksController</title>
<path fill="none" stroke="black" d="M582.875,-554.082C549.557,-533.447 492.138,-497.948 442.715,-467.703 367.446,-421.641 278.386,-367.738 234.244,-341.062"/>
</g>
<!-- TestCasesController -->
<g id="node27" class="node"><title>TestCasesController</title>
<ellipse fill="none" stroke="black" cx="798.707" cy="-852.047" rx="85.19" ry="18"/>
<text text-anchor="middle" x="798.707" y="-848.347" font-family="Times,serif" font-size="14.00">TestCasesController</text>
</g>
<!-- ApplicationController&#45;&gt;TestCasesController -->
<g id="edge50" class="edge"><title>ApplicationController&#45;&gt;TestCasesController</title>
<path fill="none" stroke="black" d="M622.834,-589.371C656.775,-640.064 752.949,-783.704 786.767,-834.213"/>
</g>
<!-- UseCaseGroupsController -->
<g id="node28" class="node"><title>UseCaseGroupsController</title>
<ellipse fill="none" stroke="black" cx="924.869" cy="-1042.38" rx="109.261" ry="18"/>
<text text-anchor="middle" x="924.869" y="-1038.68" font-family="Times,serif" font-size="14.00">UseCaseGroupsController</text>
</g>
<!-- ApplicationController&#45;&gt;UseCaseGroupsController -->
<g id="edge52" class="edge"><title>ApplicationController&#45;&gt;UseCaseGroupsController</title>
<path fill="none" stroke="black" d="M614.043,-589.547C623.081,-636.396 651.853,-763.839 711.315,-852.009 763.109,-928.808 852.778,-994.747 897.648,-1024.89"/>
</g>
<!-- UseCaseTemplatesController -->
<g id="node29" class="node"><title>UseCaseTemplatesController</title>
<ellipse fill="none" stroke="black" cx="589.135" cy="-1115.49" rx="118.409" ry="18"/>
<text text-anchor="middle" x="589.135" y="-1111.79" font-family="Times,serif" font-size="14.00">UseCaseTemplatesController</text>
</g>
<!-- ApplicationController&#45;&gt;UseCaseTemplatesController -->
<g id="edge54" class="edge"><title>ApplicationController&#45;&gt;UseCaseTemplatesController</title>
<path fill="none" stroke="black" d="M610.072,-589.491C606.777,-672.284 593.16,-1014.38 589.858,-1097.32"/>
</g>
<!-- UseCasesController -->
<g id="node30" class="node"><title>UseCasesController</title>
<ellipse fill="none" stroke="black" cx="729.538" cy="-32.9623" rx="85.2138" ry="18"/>
<text text-anchor="middle" x="729.538" y="-29.2623" font-family="Times,serif" font-size="14.00">UseCasesController</text>
</g>
<!-- ApplicationController&#45;&gt;UseCasesController -->
<g id="edge56" class="edge"><title>ApplicationController&#45;&gt;UseCasesController</title>
<path fill="none" stroke="black" d="M615.461,-553.194C629.045,-499.948 669.387,-339.737 697.672,-205.627 709.498,-149.553 721.14,-82.7184 726.491,-51.169"/>
</g>
<!-- UsersController -->
<g id="node32" class="node"><title>UsersController</title>
<ellipse fill="none" stroke="black" cx="1032.15" cy="-901.591" rx="70.2668" ry="18"/>
<text text-anchor="middle" x="1032.15" y="-897.891" font-family="Times,serif" font-size="14.00">UsersController</text>
</g>
<!-- ApplicationController&#45;&gt;UsersController -->
<g id="edge60" class="edge"><title>ApplicationController&#45;&gt;UsersController</title>
<path fill="none" stroke="black" d="M633.15,-588.908C706.224,-646.174 937.477,-827.397 1010.1,-884.313"/>
</g>
<!-- OmniauthCallbacksController -->
<g id="node15" class="node"><title>OmniauthCallbacksController</title>
<ellipse fill="none" stroke="black" cx="1187.24" cy="-116.562" rx="123.234" ry="18"/>
<text text-anchor="middle" x="1187.24" y="-112.862" font-family="Times,serif" font-size="14.00">OmniauthCallbacksController</text>
</g>
<!-- RegistrationsController -->
<g id="node19" class="node"><title>RegistrationsController</title>
<ellipse fill="none" stroke="black" cx="1218.54" cy="-1005.08" rx="98.1881" ry="18"/>
<text text-anchor="middle" x="1218.54" y="-1001.38" font-family="Times,serif" font-size="14.00">RegistrationsController</text>
</g>
<!-- SessionsController -->
<g id="node23" class="node"><title>SessionsController</title>
<ellipse fill="none" stroke="black" cx="1257" cy="-1167.94" rx="81.3646" ry="18"/>
<text text-anchor="middle" x="1257" y="-1164.24" font-family="Times,serif" font-size="14.00">SessionsController</text>
</g>
<!-- Users::InvitationsController -->
<g id="node31" class="node"><title>Users::InvitationsController</title>
<ellipse fill="none" stroke="black" cx="1290.14" cy="-837.959" rx="114.085" ry="18"/>
<text text-anchor="middle" x="1290.14" y="-834.259" font-family="Times,serif" font-size="14.00">Users::InvitationsController</text>
</g>
<!-- Devise::OmniauthCallbacksController -->
<g id="node45" class="node"><title>Devise::OmniauthCallbacksController</title>
<ellipse fill="none" stroke="black" cx="1472.12" cy="-74" rx="153.08" ry="18"/>
<text text-anchor="middle" x="1472.12" y="-70.3" font-family="Times,serif" font-size="14.00">Devise::OmniauthCallbacksController</text>
</g>
<!-- Devise::OmniauthCallbacksController&#45;&gt;OmniauthCallbacksController -->
<g id="edge26" class="edge"><title>Devise::OmniauthCallbacksController&#45;&gt;OmniauthCallbacksController</title>
<path fill="none" stroke="black" d="M1377.26,-88.1725C1343.75,-93.1782 1306.28,-98.7768 1273.53,-103.671"/>
</g>
<!-- Devise::RegistrationsController -->
<g id="node50" class="node"><title>Devise::RegistrationsController</title>
<ellipse fill="none" stroke="black" cx="1453.37" cy="-970" rx="128.058" ry="18"/>
<text text-anchor="middle" x="1453.37" y="-966.3" font-family="Times,serif" font-size="14.00">Devise::RegistrationsController</text>
</g>
<!-- Devise::RegistrationsController&#45;&gt;RegistrationsController -->
<g id="edge34" class="edge"><title>Devise::RegistrationsController&#45;&gt;RegistrationsController</title>
<path fill="none" stroke="black" d="M1365.6,-983.114C1342.41,-986.579 1317.57,-990.29 1295.03,-993.657"/>
</g>
<!-- Devise::SessionsController -->
<g id="node55" class="node"><title>Devise::SessionsController</title>
<ellipse fill="none" stroke="black" cx="1457.38" cy="-1138" rx="111.21" ry="18"/>
<text text-anchor="middle" x="1457.38" y="-1134.3" font-family="Times,serif" font-size="14.00">Devise::SessionsController</text>
</g>
<!-- Devise::SessionsController&#45;&gt;SessionsController -->
<g id="edge42" class="edge"><title>Devise::SessionsController&#45;&gt;SessionsController</title>
<path fill="none" stroke="black" d="M1375.59,-1150.22C1358.6,-1152.76 1340.87,-1155.41 1324.47,-1157.86"/>
</g>
<!-- Devise::InvitationsController -->
<g id="node64" class="node"><title>Devise::InvitationsController</title>
<ellipse fill="none" stroke="black" cx="1530.82" cy="-802" rx="117.935" ry="18"/>
<text text-anchor="middle" x="1530.82" y="-798.3" font-family="Times,serif" font-size="14.00">Devise::InvitationsController</text>
</g>
<!-- Devise::InvitationsController&#45;&gt;Users::InvitationsController -->
<g id="edge58" class="edge"><title>Devise::InvitationsController&#45;&gt;Users::InvitationsController</title>
<path fill="none" stroke="black" d="M1446.31,-814.627C1422.6,-818.169 1396.86,-822.015 1373.24,-825.544"/>
</g>
</g>
</svg>
