<?xml version="1.0" encoding="UTF-8" standalone="no"?>
<!DOCTYPE svg PUBLIC "-//W3C//DTD SVG 1.1//EN"
 "http://www.w3.org/Graphics/SVG/1.1/DTD/svg11.dtd">
<!-- Generated by graphviz version 2.28.0 (20130415.2246)
 -->
<!-- Title: models_diagram Pages: 1 -->
<svg width="2017pt" height="734pt"
 viewBox="0.00 0.00 2016.59 734.00" xmlns="http://www.w3.org/2000/svg" xmlns:xlink="http://www.w3.org/1999/xlink">
<g id="graph1" class="graph" transform="scale(1 1) rotate(0) translate(4 730)">
<title>models_diagram</title>
<polygon fill="white" stroke="white" points="-4,5 -4,-730 2013.59,-730 2013.59,5 -4,5"/>
<!-- _diagram_info -->
<g id="node1" class="node"><title>_diagram_info</title>
<text text-anchor="start" x="8" y="-711.6" font-family="Times,serif" font-size="13.00">Models diagram</text>
<text text-anchor="start" x="8" y="-697.6" font-family="Times,serif" font-size="13.00">Date: Oct 31 2013 &#45; 15:49</text>
<text text-anchor="start" x="8" y="-683.6" font-family="Times,serif" font-size="13.00">Migration version: 20131029045753</text>
<text text-anchor="start" x="8" y="-669.6" font-family="Times,serif" font-size="13.00">Generated by RailRoady 1.1.1</text>
<text text-anchor="start" x="8" y="-655.6" font-family="Times,serif" font-size="13.00">http://railroady.prestonlee.com</text>
</g>
<!-- Ability -->
<g id="node2" class="node"><title>Ability</title>
<polygon fill="none" stroke="black" points="289.25,-612 232.75,-612 232.75,-576 289.25,-576 289.25,-612"/>
<text text-anchor="middle" x="261" y="-590.3" font-family="Times,serif" font-size="14.00">Ability</text>
</g>
<!-- Bug -->
<g id="node3" class="node"><title>Bug</title>
<ellipse fill="none" stroke="black" cx="968" cy="-18" rx="27" ry="18"/>
<text text-anchor="middle" x="968" y="-14.3" font-family="Times,serif" font-size="14.00">Bug</text>
</g>
<!-- Comment -->
<g id="node4" class="node"><title>Comment</title>
<ellipse fill="none" stroke="black" cx="594" cy="-162" rx="48.1437" ry="18"/>
<text text-anchor="middle" x="594" y="-158.3" font-family="Times,serif" font-size="14.00">Comment</text>
</g>
<!-- Commit -->
<g id="node5" class="node"><title>Commit</title>
<ellipse fill="none" stroke="black" cx="1341" cy="-162" rx="41.394" ry="18"/>
<text text-anchor="middle" x="1341" y="-158.3" font-family="Times,serif" font-size="14.00">Commit</text>
</g>
<!-- DocumentProject -->
<g id="node6" class="node"><title>DocumentProject</title>
<ellipse fill="none" stroke="black" cx="1232" cy="-450" rx="76.0649" ry="18"/>
<text text-anchor="middle" x="1232" y="-446.3" font-family="Times,serif" font-size="14.00">DocumentProject</text>
</g>
<!-- DocumentTask -->
<g id="node7" class="node"><title>DocumentTask</title>
<ellipse fill="none" stroke="black" cx="1550" cy="-162" rx="67.3907" ry="18"/>
<text text-anchor="middle" x="1550" y="-158.3" font-family="Times,serif" font-size="14.00">DocumentTask</text>
</g>
<!-- Evaluation -->
<g id="node8" class="node"><title>Evaluation</title>
<ellipse fill="none" stroke="black" cx="1068" cy="-162" rx="50.5427" ry="18"/>
<text text-anchor="middle" x="1068" y="-158.3" font-family="Times,serif" font-size="14.00">Evaluation</text>
</g>
<!-- TestCase -->
<g id="node23" class="node"><title>TestCase</title>
<ellipse fill="none" stroke="black" cx="1068" cy="-90" rx="43.319" ry="18"/>
<text text-anchor="middle" x="1068" y="-86.3" font-family="Times,serif" font-size="14.00">TestCase</text>
</g>
<!-- Evaluation&#45;&gt;TestCase -->
<g id="edge14" class="edge"><title>Evaluation&#45;&gt;TestCase</title>
<path fill="none" stroke="#2c70b2" d="M1068,-135.64C1068,-130.063 1068,-124.132 1068,-118.476"/>
<ellipse fill="none" stroke="#2c70b2" cx="1068" cy="-139.697" rx="4" ry="4"/>
<polygon fill="#2c70b2" stroke="#2c70b2" points="1068,-118.104 1072.5,-108.104 1068,-113.104 1068,-108.104 1068,-108.104 1068,-108.104 1068,-113.104 1063.5,-108.104 1068,-118.104 1068,-118.104"/>
</g>
<!-- Goal -->
<g id="node9" class="node"><title>Goal</title>
<ellipse fill="none" stroke="black" cx="1039" cy="-522" rx="28.3955" ry="18"/>
<text text-anchor="middle" x="1039" y="-518.3" font-family="Times,serif" font-size="14.00">Goal</text>
</g>
<!-- Task -->
<g id="node21" class="node"><title>Task</title>
<ellipse fill="none" stroke="black" cx="956" cy="-234" rx="28.3955" ry="18"/>
<text text-anchor="middle" x="956" y="-230.3" font-family="Times,serif" font-size="14.00">Task</text>
</g>
<!-- Goal&#45;&gt;Task -->
<g id="edge18" class="edge"><title>Goal&#45;&gt;Task</title>
<path fill="none" stroke="#4699c5" d="M1016.14,-501.584C1007.1,-492.434 997.755,-480.734 993,-468 964.626,-392.022 1058.33,-361.002 1023,-288 1015.37,-272.231 1000.51,-259.729 986.727,-250.838"/>
<ellipse fill="none" stroke="#4699c5" cx="1019.09" cy="-504.437" rx="4.00002" ry="4.00002"/>
<polygon fill="#4699c5" stroke="#4699c5" points="986.471,-250.684 980.233,-241.665 982.19,-248.101 977.909,-245.518 977.909,-245.518 977.909,-245.518 982.19,-248.101 975.584,-249.372 986.471,-250.684 986.471,-250.684"/>
</g>
<!-- Label -->
<g id="node10" class="node"><title>Label</title>
<ellipse fill="none" stroke="black" cx="817" cy="-522" rx="31.2735" ry="18"/>
<text text-anchor="middle" x="817" y="-518.3" font-family="Times,serif" font-size="14.00">Label</text>
</g>
<!-- Label&#45;&gt;Task -->
<g id="edge22" class="edge"><title>Label&#45;&gt;Task</title>
<path fill="none" stroke="#828c76" d="M818.089,-495.659C821.19,-450.108 833.12,-353.087 879,-288 890.49,-271.7 908.691,-258.837 924.513,-249.867"/>
<ellipse fill="none" stroke="#828c76" cx="817.836" cy="-499.81" rx="4" ry="4"/>
<polygon fill="#828c76" stroke="#828c76" points="924.679,-249.777 935.617,-249.001 929.082,-247.408 933.485,-245.038 933.485,-245.038 933.485,-245.038 929.082,-247.408 931.352,-241.076 924.679,-249.777 924.679,-249.777"/>
</g>
<!-- Notification -->
<g id="node11" class="node"><title>Notification</title>
<ellipse fill="none" stroke="black" cx="943" cy="-306" rx="55.3682" ry="18"/>
<text text-anchor="middle" x="943" y="-302.3" font-family="Times,serif" font-size="14.00">Notification</text>
</g>
<!-- Notification&#45;&gt;Task -->
<g id="edge26" class="edge"><title>Notification&#45;&gt;Task</title>
<path fill="none" stroke="#dbf700" d="M947.71,-279.64C948.878,-273.348 950.13,-266.605 951.299,-260.316"/>
<ellipse fill="none" stroke="#dbf700" cx="946.944" cy="-283.764" rx="4.00001" ry="4.00001"/>
<ellipse fill="#dbf700" stroke="#dbf700" cx="952.093" cy="-256.037" rx="4.00001" ry="4.00001"/>
</g>
<!-- Project -->
<g id="node12" class="node"><title>Project</title>
<ellipse fill="none" stroke="black" cx="917" cy="-522" rx="37.0701" ry="18"/>
<text text-anchor="middle" x="917" y="-518.3" font-family="Times,serif" font-size="14.00">Project</text>
</g>
<!-- Project&#45;&gt;Bug -->
<g id="edge36" class="edge"><title>Project&#45;&gt;Bug</title>
<path fill="none" stroke="#bce963" d="M910.644,-496.233C901.478,-459.111 884.992,-386.699 879,-324 877.478,-308.073 876.455,-303.796 879,-288 886.825,-239.437 936.741,-102.579 958.208,-45.0197"/>
<ellipse fill="none" stroke="#bce963" cx="911.622" cy="-500.15" rx="4.00001" ry="4.00001"/>
<polygon fill="#bce963" stroke="#bce963" points="958.248,-44.912 965.966,-37.1224 960,-40.2289 961.751,-35.5458 961.751,-35.5458 961.751,-35.5458 960,-40.2289 957.537,-33.9692 958.248,-44.912 958.248,-44.912"/>
</g>
<!-- Project&#45;&gt;DocumentProject -->
<g id="edge30" class="edge"><title>Project&#45;&gt;DocumentProject</title>
<path fill="none" stroke="#d877ed" d="M958.116,-511.863C1011.77,-499.941 1106.18,-478.959 1168.92,-465.018"/>
<ellipse fill="none" stroke="#d877ed" cx="954.02" cy="-512.773" rx="4.00001" ry="4.00001"/>
<polygon fill="#d877ed" stroke="#d877ed" points="1168.94,-465.013 1179.68,-467.236 1173.82,-463.928 1178.7,-462.843 1178.7,-462.843 1178.7,-462.843 1173.82,-463.928 1177.73,-458.451 1168.94,-465.013 1168.94,-465.013"/>
</g>
<!-- ProjectRoleUser -->
<g id="node13" class="node"><title>ProjectRoleUser</title>
<ellipse fill="none" stroke="black" cx="456" cy="-306" rx="72.2155" ry="18"/>
<text text-anchor="middle" x="456" y="-302.3" font-family="Times,serif" font-size="14.00">ProjectRoleUser</text>
</g>
<!-- Project&#45;&gt;ProjectRoleUser -->
<g id="edge44" class="edge"><title>Project&#45;&gt;ProjectRoleUser</title>
<path fill="none" stroke="#eebff9" d="M878.189,-509.549C871.161,-507.605 863.88,-505.676 857,-504 779.426,-485.104 754.179,-499.93 681,-468 659.696,-458.705 541.976,-371.422 485.821,-329.4"/>
<ellipse fill="none" stroke="#eebff9" cx="882.433" cy="-510.741" rx="4.00001" ry="4.00001"/>
<polygon fill="#eebff9" stroke="#eebff9" points="485.685,-329.298 480.379,-319.702 481.683,-326.301 477.681,-323.303 477.681,-323.303 477.681,-323.303 481.683,-326.301 474.984,-326.905 485.685,-329.298 485.685,-329.298"/>
</g>
<!-- Role -->
<g id="node18" class="node"><title>Role</title>
<ellipse fill="none" stroke="black" cx="567" cy="-450" rx="28.3955" ry="18"/>
<text text-anchor="middle" x="567" y="-446.3" font-family="Times,serif" font-size="14.00">Role</text>
</g>
<!-- Project&#45;&gt;Role -->
<g id="edge48" class="edge"><title>Project&#45;&gt;Role</title>
<path fill="none" stroke="#6febf1" d="M876.391,-508.869C869.933,-507.121 863.305,-505.432 857,-504 765.084,-483.124 740.583,-485.683 648,-468 633.492,-465.229 617.574,-461.942 603.719,-459.001"/>
<polygon fill="#6febf1" stroke="#6febf1" points="876.695,-508.954 885.121,-515.972 881.511,-510.295 886.328,-511.637 886.328,-511.637 886.328,-511.637 881.511,-510.295 887.535,-507.302 876.695,-508.954 876.695,-508.954"/>
<polygon fill="#6febf1" stroke="#6febf1" points="603.362,-458.924 594.524,-452.432 598.472,-457.879 593.583,-456.833 593.583,-456.833 593.583,-456.833 598.472,-457.879 592.642,-461.233 603.362,-458.924 603.362,-458.924"/>
</g>
<!-- Status -->
<g id="node19" class="node"><title>Status</title>
<ellipse fill="none" stroke="black" cx="723" cy="-450" rx="33.2209" ry="18"/>
<text text-anchor="middle" x="723" y="-446.3" font-family="Times,serif" font-size="14.00">Status</text>
</g>
<!-- Project&#45;&gt;Status -->
<g id="edge38" class="edge"><title>Project&#45;&gt;Status</title>
<path fill="none" stroke="#ce0d34" d="M880.159,-507.707C845.512,-495.205 793.943,-476.598 759.43,-464.145"/>
<ellipse fill="none" stroke="#ce0d34" cx="884.194" cy="-509.163" rx="4.00001" ry="4.00001"/>
<polygon fill="#ce0d34" stroke="#ce0d34" points="759.147,-464.043 751.268,-456.416 754.444,-462.346 749.741,-460.649 749.741,-460.649 749.741,-460.649 754.444,-462.346 748.214,-464.882 759.147,-464.043 759.147,-464.043"/>
</g>
<!-- Project&#45;&gt;Task -->
<g id="edge34" class="edge"><title>Project&#45;&gt;Task</title>
<path fill="none" stroke="#5e473b" d="M926.362,-496.358C933.343,-478.368 943.307,-453.474 953,-432 964.04,-407.543 1000.84,-350.115 1007,-324 1010.68,-308.428 1012.98,-302.84 1007,-288 1001.8,-275.103 991.799,-263.589 982.019,-254.614"/>
<ellipse fill="none" stroke="#5e473b" cx="924.815" cy="-500.369" rx="4.00001" ry="4.00001"/>
<polygon fill="#5e473b" stroke="#5e473b" points="981.897,-254.509 977.256,-244.573 978.108,-251.246 974.319,-247.983 974.319,-247.983 974.319,-247.983 978.108,-251.246 971.383,-251.393 981.897,-254.509 981.897,-254.509"/>
</g>
<!-- UseCase -->
<g id="node24" class="node"><title>UseCase</title>
<ellipse fill="none" stroke="black" cx="1110" cy="-378" rx="42.3701" ry="18"/>
<text text-anchor="middle" x="1110" y="-374.3" font-family="Times,serif" font-size="14.00">UseCase</text>
</g>
<!-- Project&#45;&gt;UseCase -->
<g id="edge32" class="edge"><title>Project&#45;&gt;UseCase</title>
<path fill="none" stroke="#433d12" d="M932.379,-497.828C946.323,-478.238 968.411,-450.487 993,-432 1015.46,-415.115 1044.15,-402.012 1067.5,-393.059"/>
<ellipse fill="none" stroke="#433d12" cx="929.911" cy="-501.364" rx="4.00002" ry="4.00002"/>
<polygon fill="#433d12" stroke="#433d12" points="1067.78,-392.958 1078.72,-393.695 1072.46,-391.217 1077.15,-389.476 1077.15,-389.476 1077.15,-389.476 1072.46,-391.217 1075.58,-385.258 1067.78,-392.958 1067.78,-392.958"/>
</g>
<!-- UseCaseGroup -->
<g id="node25" class="node"><title>UseCaseGroup</title>
<ellipse fill="none" stroke="black" cx="1070" cy="-450" rx="67.3907" ry="18"/>
<text text-anchor="middle" x="1070" y="-446.3" font-family="Times,serif" font-size="14.00">UseCaseGroup</text>
</g>
<!-- Project&#45;&gt;UseCaseGroup -->
<g id="edge42" class="edge"><title>Project&#45;&gt;UseCaseGroup</title>
<path fill="none" stroke="#107696" d="M950.311,-505.76C973.152,-495.31 1003.63,-481.364 1028.12,-470.161"/>
<ellipse fill="none" stroke="#107696" cx="946.592" cy="-507.461" rx="4.00002" ry="4.00002"/>
<polygon fill="#107696" stroke="#107696" points="1028.43,-470.02 1039.39,-469.952 1032.97,-467.94 1037.52,-465.86 1037.52,-465.86 1037.52,-465.86 1032.97,-467.94 1035.65,-461.768 1028.43,-470.02 1028.43,-470.02"/>
</g>
<!-- UseCaseTemplate -->
<g id="node26" class="node"><title>UseCaseTemplate</title>
<ellipse fill="none" stroke="black" cx="1403" cy="-450" rx="76.5394" ry="18"/>
<text text-anchor="middle" x="1403" y="-446.3" font-family="Times,serif" font-size="14.00">UseCaseTemplate</text>
</g>
<!-- Project&#45;&gt;UseCaseTemplate -->
<g id="edge40" class="edge"><title>Project&#45;&gt;UseCaseTemplate</title>
<path fill="none" stroke="#aadfc1" d="M957.831,-512.001C971.509,-509.183 986.871,-506.23 1001,-504 1140.62,-481.96 1177.33,-489.724 1317,-468 1323.77,-466.947 1330.82,-465.739 1337.84,-464.462"/>
<ellipse fill="none" stroke="#aadfc1" cx="953.91" cy="-512.82" rx="4.00001" ry="4.00001"/>
<polygon fill="#aadfc1" stroke="#aadfc1" points="1338.23,-464.388 1348.89,-466.977 1343.15,-463.471 1348.06,-462.554 1348.06,-462.554 1348.06,-462.554 1343.15,-463.471 1347.24,-458.13 1338.23,-464.388 1338.23,-464.388"/>
</g>
<!-- User -->
<g id="node27" class="node"><title>User</title>
<ellipse fill="none" stroke="black" cx="670" cy="-378" rx="28.3955" ry="18"/>
<text text-anchor="middle" x="670" y="-374.3" font-family="Times,serif" font-size="14.00">User</text>
</g>
<!-- Project&#45;&gt;User -->
<g id="edge46" class="edge"><title>Project&#45;&gt;User</title>
<path fill="none" stroke="#62e30c" d="M885.489,-502.292C854.825,-484.148 806.863,-455.93 765,-432 743.259,-419.572 718.553,-405.8 699.786,-395.409"/>
<polygon fill="#62e30c" stroke="#62e30c" points="885.819,-502.488 892.131,-511.455 890.121,-505.035 894.424,-507.583 894.424,-507.583 894.424,-507.583 890.121,-505.035 896.717,-503.711 885.819,-502.488 885.819,-502.488"/>
<polygon fill="#62e30c" stroke="#62e30c" points="699.578,-395.294 693.003,-386.518 695.202,-392.875 690.826,-390.456 690.826,-390.456 690.826,-390.456 695.202,-392.875 688.649,-394.394 699.578,-395.294 699.578,-395.294"/>
</g>
<!-- ProjectStatus -->
<g id="node14" class="node"><title>ProjectStatus</title>
<ellipse fill="none" stroke="black" cx="1019" cy="-594" rx="59.1941" ry="18"/>
<text text-anchor="middle" x="1019" y="-590.3" font-family="Times,serif" font-size="14.00">ProjectStatus</text>
</g>
<!-- ProjectStatus&#45;&gt;Project -->
<g id="edge54" class="edge"><title>ProjectStatus&#45;&gt;Project</title>
<path fill="none" stroke="#28a966" d="M989.27,-572.597C975.705,-563.287 959.693,-552.299 946.192,-543.034"/>
<ellipse fill="none" stroke="#28a966" cx="992.811" cy="-575.027" rx="4.00002" ry="4.00002"/>
<polygon fill="#28a966" stroke="#28a966" points="945.98,-542.888 940.281,-533.519 941.857,-540.059 937.734,-537.229 937.734,-537.229 937.734,-537.229 941.857,-540.059 935.188,-540.94 945.98,-542.888 945.98,-542.888"/>
</g>
<!-- ReportedHours -->
<g id="node15" class="node"><title>ReportedHours</title>
<ellipse fill="none" stroke="black" cx="1909" cy="-594" rx="68.3417" ry="18"/>
<text text-anchor="middle" x="1909" y="-590.3" font-family="Times,serif" font-size="14.00">ReportedHours</text>
</g>
<!-- Requirement -->
<g id="node16" class="node"><title>Requirement</title>
<ellipse fill="none" stroke="black" cx="1326" cy="-306" rx="59.2173" ry="18"/>
<text text-anchor="middle" x="1326" y="-302.3" font-family="Times,serif" font-size="14.00">Requirement</text>
</g>
<!-- Requirement&#45;&gt;Task -->
<g id="edge60" class="edge"><title>Requirement&#45;&gt;Task</title>
<path fill="none" stroke="#8a31a8" d="M1269.13,-294.241C1192.34,-279.713 1057.67,-254.235 992.877,-241.977"/>
<ellipse fill="none" stroke="#8a31a8" cx="1273.32" cy="-295.033" rx="4.00001" ry="4.00001"/>
<polygon fill="#8a31a8" stroke="#8a31a8" points="992.553,-241.916 983.564,-235.635 987.64,-240.986 982.727,-240.057 982.727,-240.057 982.727,-240.057 987.64,-240.986 981.891,-244.478 992.553,-241.916 992.553,-241.916"/>
</g>
<!-- RequirementTemplate -->
<g id="node17" class="node"><title>RequirementTemplate</title>
<ellipse fill="none" stroke="black" cx="1501" cy="-378" rx="92.413" ry="18"/>
<text text-anchor="middle" x="1501" y="-374.3" font-family="Times,serif" font-size="14.00">RequirementTemplate</text>
</g>
<!-- RequirementTemplate&#45;&gt;Requirement -->
<g id="edge64" class="edge"><title>RequirementTemplate&#45;&gt;Requirement</title>
<path fill="none" stroke="#08cfa7" d="M1454.43,-358.373C1428.19,-347.874 1395.59,-334.838 1369.81,-324.525"/>
<ellipse fill="none" stroke="#08cfa7" cx="1458.45" cy="-359.979" rx="4.00001" ry="4.00001"/>
<polygon fill="#08cfa7" stroke="#08cfa7" points="1369.58,-324.43 1361.96,-316.538 1364.93,-322.573 1360.29,-320.716 1360.29,-320.716 1360.29,-320.716 1364.93,-322.573 1358.62,-324.894 1369.58,-324.43 1369.58,-324.43"/>
</g>
<!-- Role&#45;&gt;ProjectRoleUser -->
<g id="edge68" class="edge"><title>Role&#45;&gt;ProjectRoleUser</title>
<path fill="none" stroke="#2947b2" d="M549.884,-427.103C529.791,-401.4 496.544,-358.868 475.482,-331.922"/>
<ellipse fill="none" stroke="#2947b2" cx="552.446" cy="-430.382" rx="4.00002" ry="4.00002"/>
<polygon fill="#2947b2" stroke="#2947b2" points="475.262,-331.641 472.648,-320.991 472.182,-327.702 469.103,-323.763 469.103,-323.763 469.103,-323.763 472.182,-327.702 465.558,-326.534 475.262,-331.641 475.262,-331.641"/>
</g>
<!-- Role&#45;&gt;User -->
<g id="edge70" class="edge"><title>Role&#45;&gt;User</title>
<path fill="none" stroke="#a9da68" d="M594.249,-430.481C609.271,-420.272 627.859,-407.64 642.862,-397.443"/>
<polygon fill="#a9da68" stroke="#a9da68" points="594.163,-430.54 583.362,-432.439 590.027,-433.35 585.892,-436.161 585.892,-436.161 585.892,-436.161 590.027,-433.35 588.421,-439.883 594.163,-430.54 594.163,-430.54"/>
<polygon fill="#a9da68" stroke="#a9da68" points="642.957,-397.379 653.757,-395.48 647.093,-394.568 651.228,-391.758 651.228,-391.758 651.228,-391.758 647.093,-394.568 648.699,-388.036 642.957,-397.379 642.957,-397.379"/>
</g>
<!-- Status&#45;&gt;Task -->
<g id="edge74" class="edge"><title>Status&#45;&gt;Task</title>
<path fill="none" stroke="#7c00fc" d="M736.297,-425.106C756.306,-390.941 797.071,-327.867 846,-288 868.72,-269.488 898.981,-255.513 922.012,-246.574"/>
<ellipse fill="none" stroke="#7c00fc" cx="734.12" cy="-428.875" rx="4.00002" ry="4.00002"/>
<polygon fill="#7c00fc" stroke="#7c00fc" points="922.035,-246.566 932.978,-247.266 926.716,-244.809 931.397,-243.053 931.397,-243.053 931.397,-243.053 926.716,-244.809 929.816,-238.84 922.035,-246.566 922.035,-246.566"/>
</g>
<!-- SubTask -->
<g id="node20" class="node"><title>SubTask</title>
<ellipse fill="none" stroke="black" cx="1720" cy="-162" rx="43.319" ry="18"/>
<text text-anchor="middle" x="1720" y="-158.3" font-family="Times,serif" font-size="14.00">SubTask</text>
</g>
<!-- Task&#45;&gt;Bug -->
<g id="edge80" class="edge"><title>Task&#45;&gt;Bug</title>
<path fill="none" stroke="#c19e91" d="M957.42,-207.67C959.728,-166.514 964.266,-85.5871 966.576,-44.3915"/>
<ellipse fill="none" stroke="#c19e91" cx="957.186" cy="-211.856" rx="4" ry="4"/>
<ellipse fill="#c19e91" stroke="#c19e91" cx="966.81" cy="-40.2262" rx="4" ry="4"/>
</g>
<!-- Task&#45;&gt;Comment -->
<g id="edge84" class="edge"><title>Task&#45;&gt;Comment</title>
<path fill="none" stroke="#6c73d8" d="M920.438,-228.209C863.252,-220.194 747.49,-202.689 651,-180 647.152,-179.095 643.18,-178.081 639.207,-177.01"/>
<ellipse fill="none" stroke="#6c73d8" cx="924.479" cy="-228.771" rx="4.00001" ry="4.00001"/>
<polygon fill="#6c73d8" stroke="#6c73d8" points="639.03,-176.96 630.616,-169.928 634.216,-175.611 629.401,-174.262 629.401,-174.262 629.401,-174.262 634.216,-175.611 628.187,-178.595 639.03,-176.96 639.03,-176.96"/>
</g>
<!-- Task&#45;&gt;Commit -->
<g id="edge90" class="edge"><title>Task&#45;&gt;Commit</title>
<path fill="none" stroke="#e46504" d="M990.696,-226.692C1059.88,-214.113 1215.08,-185.894 1293.59,-171.62"/>
<ellipse fill="none" stroke="#e46504" cx="986.702" cy="-227.418" rx="4.00001" ry="4.00001"/>
<polygon fill="#e46504" stroke="#e46504" points="1293.85,-171.573 1304.49,-174.211 1298.77,-170.678 1303.69,-169.784 1303.69,-169.784 1303.69,-169.784 1298.77,-170.678 1302.88,-165.357 1293.85,-171.573 1293.85,-171.573"/>
</g>
<!-- Task&#45;&gt;DocumentTask -->
<g id="edge88" class="edge"><title>Task&#45;&gt;DocumentTask</title>
<path fill="none" stroke="#9681b3" d="M992.028,-228.754C1088.17,-217.425 1352.12,-186.319 1479.46,-171.313"/>
<ellipse fill="none" stroke="#9681b3" cx="987.826" cy="-229.249" rx="4.00001" ry="4.00001"/>
<polygon fill="#9681b3" stroke="#9681b3" points="1479.56,-171.301 1490.02,-174.599 1484.53,-170.716 1489.49,-170.13 1489.49,-170.13 1489.49,-170.13 1484.53,-170.716 1488.97,-165.661 1479.56,-171.301 1479.56,-171.301"/>
</g>
<!-- Task&#45;&gt;Evaluation -->
<g id="edge82" class="edge"><title>Task&#45;&gt;Evaluation</title>
<path fill="none" stroke="#85fb03" d="M982.588,-216.382C998.916,-206.177 1019.9,-193.062 1036.98,-182.385"/>
<ellipse fill="none" stroke="#85fb03" cx="978.901" cy="-218.687" rx="4.00002" ry="4.00002"/>
<ellipse fill="#85fb03" stroke="#85fb03" cx="1040.65" cy="-180.094" rx="4.00002" ry="4.00002"/>
</g>
<!-- Task&#45;&gt;SubTask -->
<g id="edge96" class="edge"><title>Task&#45;&gt;SubTask</title>
<path fill="none" stroke="#31d16d" d="M992.23,-231.41C1093.02,-226.712 1385.14,-211.227 1626,-180 1640.97,-178.06 1657.17,-175.351 1671.84,-172.665"/>
<ellipse fill="none" stroke="#31d16d" cx="988.185" cy="-231.597" rx="4" ry="4"/>
<polygon fill="#31d16d" stroke="#31d16d" points="1671.89,-172.656 1682.54,-175.242 1676.8,-171.737 1681.72,-170.819 1681.72,-170.819 1681.72,-170.819 1676.8,-171.737 1680.89,-166.395 1671.89,-172.656 1671.89,-172.656"/>
</g>
<!-- TaskUser -->
<g id="node22" class="node"><title>TaskUser</title>
<ellipse fill="none" stroke="black" cx="706" cy="-162" rx="46.2191" ry="18"/>
<text text-anchor="middle" x="706" y="-158.3" font-family="Times,serif" font-size="14.00">TaskUser</text>
</g>
<!-- Task&#45;&gt;TaskUser -->
<g id="edge92" class="edge"><title>Task&#45;&gt;TaskUser</title>
<path fill="none" stroke="#6c6ca4" d="M922.488,-224.266C883.561,-214.035 817.459,-196.393 761,-180 757.635,-179.023 754.16,-177.995 750.668,-176.947"/>
<ellipse fill="none" stroke="#6c6ca4" cx="926.5" cy="-225.319" rx="4.00001" ry="4.00001"/>
<polygon fill="#6c6ca4" stroke="#6c6ca4" points="750.43,-176.875 742.166,-169.667 745.645,-175.424 740.86,-173.973 740.86,-173.973 740.86,-173.973 745.645,-175.424 739.554,-178.279 750.43,-176.875 750.43,-176.875"/>
</g>
<!-- Task&#45;&gt;User -->
<g id="edge94" class="edge"><title>Task&#45;&gt;User</title>
<path fill="none" stroke="#f8de23" d="M917.441,-235.911C869.966,-238.763 788.677,-249.446 732,-288 708.881,-303.726 691.723,-331.151 681.388,-351.413"/>
<polygon fill="#f8de23" stroke="#f8de23" points="917.62,-235.901 927.837,-239.883 922.613,-235.645 927.607,-235.389 927.607,-235.389 927.607,-235.389 922.613,-235.645 927.376,-230.895 917.62,-235.901 917.62,-235.901"/>
<polygon fill="#f8de23" stroke="#f8de23" points="681.377,-351.437 672.95,-358.454 679.186,-355.931 676.995,-360.426 676.995,-360.426 676.995,-360.426 679.186,-355.931 681.04,-362.397 681.377,-351.437 681.377,-351.437"/>
</g>
<!-- ReportedHour -->
<g id="node73" class="node"><title>ReportedHour</title>
<ellipse fill="none" stroke="black" cx="836" cy="-162" rx="65.4659" ry="18"/>
<text text-anchor="middle" x="836" y="-158.3" font-family="Times,serif" font-size="14.00">ReportedHour</text>
</g>
<!-- Task&#45;&gt;ReportedHour -->
<g id="edge86" class="edge"><title>Task&#45;&gt;ReportedHour</title>
<path fill="none" stroke="#76c55f" d="M928.983,-217.24C912.026,-207.349 889.971,-194.483 871.596,-183.764"/>
<ellipse fill="none" stroke="#76c55f" cx="932.46" cy="-219.268" rx="4.00002" ry="4.00002"/>
<polygon fill="#76c55f" stroke="#76c55f" points="871.547,-183.736 865.177,-174.81 867.228,-181.216 862.909,-178.697 862.909,-178.697 862.909,-178.697 867.228,-181.216 860.642,-182.584 871.547,-183.736 871.547,-183.736"/>
</g>
<!-- TestCase&#45;&gt;Bug -->
<g id="edge102" class="edge"><title>TestCase&#45;&gt;Bug</title>
<path fill="none" stroke="#7b02d5" d="M1040.18,-69.5248C1025.34,-59.141 1007.24,-46.4709 992.88,-36.4163"/>
<ellipse fill="none" stroke="#7b02d5" cx="1043.52" cy="-71.8609" rx="4.00002" ry="4.00002"/>
<ellipse fill="#7b02d5" stroke="#7b02d5" cx="989.437" cy="-34.0059" rx="4.00002" ry="4.00002"/>
</g>
<!-- UseCase&#45;&gt;Requirement -->
<g id="edge106" class="edge"><title>UseCase&#45;&gt;Requirement</title>
<path fill="none" stroke="#9dc363" d="M1150.84,-363.764C1186.74,-352.129 1239.07,-335.173 1277.17,-322.824"/>
<ellipse fill="none" stroke="#9dc363" cx="1146.61" cy="-365.135" rx="4.00001" ry="4.00001"/>
<polygon fill="#9dc363" stroke="#9dc363" points="1277.51,-322.714 1288.41,-323.912 1282.27,-321.172 1287.02,-319.631 1287.02,-319.631 1287.02,-319.631 1282.27,-321.172 1285.64,-315.35 1277.51,-322.714 1277.51,-322.714"/>
</g>
<!-- UseCaseGroup&#45;&gt;UseCase -->
<g id="edge110" class="edge"><title>UseCaseGroup&#45;&gt;UseCase</title>
<path fill="none" stroke="#759e11" d="M1083.72,-424.998C1087.49,-418.387 1091.6,-411.194 1095.43,-404.502"/>
<ellipse fill="none" stroke="#759e11" cx="1081.67" cy="-428.582" rx="4.00002" ry="4.00002"/>
<polygon fill="#759e11" stroke="#759e11" points="1095.44,-404.471 1104.31,-398.022 1097.93,-400.13 1100.41,-395.789 1100.41,-395.789 1100.41,-395.789 1097.93,-400.13 1096.5,-393.556 1095.44,-404.471 1095.44,-404.471"/>
</g>
<!-- User&#45;&gt;Bug -->
<g id="edge116" class="edge"><title>User&#45;&gt;Bug</title>
<path fill="none" stroke="#55f380" d="M645.301,-358.843C593.183,-318.337 481.179,-218.311 537,-144 585.372,-79.6054 836.729,-37.6926 931.653,-23.9492"/>
<ellipse fill="none" stroke="#55f380" cx="648.764" cy="-361.498" rx="4.00002" ry="4.00002"/>
<polygon fill="#55f380" stroke="#55f380" points="931.75,-23.9354 942.285,-26.9775 936.7,-23.2291 941.649,-22.5227 941.649,-22.5227 941.649,-22.5227 936.7,-23.2291 941.014,-18.0678 931.75,-23.9354 931.75,-23.9354"/>
</g>
<!-- User&#45;&gt;Comment -->
<g id="edge118" class="edge"><title>User&#45;&gt;Comment</title>
<path fill="none" stroke="#28af93" d="M658,-353.322C653.632,-344.266 648.831,-333.767 645,-324 626.918,-277.895 610.495,-222.542 601.414,-190.216"/>
<ellipse fill="none" stroke="#28af93" cx="659.777" cy="-356.949" rx="4.00002" ry="4.00002"/>
<polygon fill="#28af93" stroke="#28af93" points="601.303,-189.816 602.959,-178.976 599.963,-184.999 598.623,-180.182 598.623,-180.182 598.623,-180.182 599.963,-184.999 594.288,-181.388 601.303,-189.816 601.303,-189.816"/>
</g>
<!-- User&#45;&gt;Notification -->
<g id="edge126" class="edge"><title>User&#45;&gt;Notification</title>
<path fill="none" stroke="#828f0b" d="M703.57,-368.392C750.387,-356.388 835.728,-334.506 890.862,-320.369"/>
<ellipse fill="none" stroke="#828f0b" cx="699.558" cy="-369.421" rx="4.00001" ry="4.00001"/>
<polygon fill="#828f0b" stroke="#828f0b" points="891.103,-320.307 901.907,-322.182 895.946,-319.065 900.789,-317.823 900.789,-317.823 900.789,-317.823 895.946,-319.065 899.672,-313.464 891.103,-320.307 891.103,-320.307"/>
</g>
<!-- User&#45;&gt;ProjectRoleUser -->
<g id="edge122" class="edge"><title>User&#45;&gt;ProjectRoleUser</title>
<path fill="none" stroke="#282966" d="M639.198,-364.496C635.114,-362.935 630.968,-361.397 627,-360 588.577,-346.472 544.676,-332.904 510.977,-322.883"/>
<ellipse fill="none" stroke="#282966" cx="643.185" cy="-366.049" rx="4.00001" ry="4.00001"/>
<polygon fill="#282966" stroke="#282966" points="510.9,-322.86 502.588,-315.707 506.105,-321.441 501.311,-320.022 501.311,-320.022 501.311,-320.022 506.105,-321.441 500.034,-324.337 510.9,-322.86 510.9,-322.86"/>
</g>
<!-- User&#45;&gt;TaskUser -->
<g id="edge120" class="edge"><title>User&#45;&gt;TaskUser</title>
<path fill="none" stroke="#8a5cd0" d="M661.265,-352.637C651.095,-320.216 637.857,-261.672 656,-216 660.624,-204.361 669.149,-193.798 677.866,-185.219"/>
<ellipse fill="none" stroke="#8a5cd0" cx="662.523" cy="-356.49" rx="4.00001" ry="4.00001"/>
<polygon fill="#8a5cd0" stroke="#8a5cd0" points="678.123,-184.983 688.53,-181.526 681.803,-181.599 685.483,-178.214 685.483,-178.214 685.483,-178.214 681.803,-181.599 682.437,-174.902 678.123,-184.983 678.123,-184.983"/>
</g>
<!-- User&#45;&gt;ReportedHour -->
<g id="edge124" class="edge"><title>User&#45;&gt;ReportedHour</title>
<path fill="none" stroke="#aa991b" d="M672.833,-351.681C675.838,-332.959 681.911,-307.447 694,-288 721.42,-243.892 769.147,-206.58 801.631,-184.499"/>
<ellipse fill="none" stroke="#aa991b" cx="672.233" cy="-355.8" rx="4.00001" ry="4.00001"/>
<polygon fill="#aa991b" stroke="#aa991b" points="802.038,-184.227 812.855,-182.426 806.198,-181.454 810.359,-178.681 810.359,-178.681 810.359,-178.681 806.198,-181.454 807.863,-174.937 802.038,-184.227 802.038,-184.227"/>
</g>
<!-- Object -->
<g id="node28" class="node"><title>Object</title>
<ellipse fill="none" stroke="black" cx="261" cy="-687" rx="35.1455" ry="18"/>
<text text-anchor="middle" x="261" y="-683.3" font-family="Times,serif" font-size="14.00">Object</text>
</g>
<!-- Object&#45;&gt;Ability -->
<g id="edge2" class="edge"><title>Object&#45;&gt;Ability</title>
<path fill="none" stroke="black" d="M261,-668.884C261,-652.614 261,-628.284 261,-612.04"/>
</g>
<!-- ActiveRecord::Base -->
<g id="node30" class="node"><title>ActiveRecord::Base</title>
<ellipse fill="none" stroke="black" cx="1232" cy="-687" rx="84.2388" ry="18"/>
<text text-anchor="middle" x="1232" y="-683.3" font-family="Times,serif" font-size="14.00">ActiveRecord::Base</text>
</g>
<!-- ActiveRecord::Base&#45;&gt;Bug -->
<g id="edge4" class="edge"><title>ActiveRecord::Base&#45;&gt;Bug</title>
<path fill="none" stroke="black" d="M1314.6,-683.282C1499.9,-676.426 1936.48,-655.77 1986,-612 2016.38,-585.152 2006,-563.542 2006,-523 2006,-523 2006,-523 2006,-161 2006,-55.7899 1158.09,-24.7638 994.965,-19.7685"/>
</g>
<!-- ActiveRecord::Base&#45;&gt;Comment -->
<g id="edge6" class="edge"><title>ActiveRecord::Base&#45;&gt;Comment</title>
<path fill="none" stroke="black" d="M1149.81,-682.892C948.722,-674.721 443.527,-650.573 378,-612 336.889,-587.8 318,-570.705 318,-523 318,-523 318,-523 318,-305 318,-203.154 468.436,-174.292 547.18,-166.16"/>
</g>
<!-- ActiveRecord::Base&#45;&gt;Commit -->
<g id="edge8" class="edge"><title>ActiveRecord::Base&#45;&gt;Commit</title>
<path fill="none" stroke="black" d="M1313.91,-682.64C1426.87,-676.321 1622.42,-658.781 1674,-612 1704.35,-584.477 1698,-563.969 1698,-523 1698,-523 1698,-523 1698,-305 1698,-264.031 1704.46,-243.4 1674,-216 1663.11,-206.2 1465.5,-179.302 1379.95,-168.051"/>
</g>
<!-- ActiveRecord::Base&#45;&gt;DocumentProject -->
<g id="edge10" class="edge"><title>ActiveRecord::Base&#45;&gt;DocumentProject</title>
<path fill="none" stroke="black" d="M1232,-668.72C1232,-625.261 1232,-511.791 1232,-468.305"/>
</g>
<!-- ActiveRecord::Base&#45;&gt;DocumentTask -->
<g id="edge12" class="edge"><title>ActiveRecord::Base&#45;&gt;DocumentTask</title>
<path fill="none" stroke="black" d="M1313.73,-682.501C1431.35,-675.92 1640.63,-657.957 1699,-612 1732.66,-585.5 1736,-565.838 1736,-523 1736,-523 1736,-523 1736,-305 1736,-262.162 1730.07,-245.489 1699,-216 1673.91,-192.185 1637.42,-178.974 1606.83,-171.698"/>
</g>
<!-- ActiveRecord::Base&#45;&gt;Evaluation -->
<g id="edge16" class="edge"><title>ActiveRecord::Base&#45;&gt;Evaluation</title>
<path fill="none" stroke="black" d="M1308.15,-679.231C1405.64,-669.239 1567.64,-647.76 1615,-612 1650.37,-585.29 1660,-567.324 1660,-523 1660,-523 1660,-523 1660,-305 1660,-248.983 1254.01,-188.362 1114.45,-169.178"/>
</g>
<!-- ActiveRecord::Base&#45;&gt;Goal -->
<g id="edge20" class="edge"><title>ActiveRecord::Base&#45;&gt;Goal</title>
<path fill="none" stroke="black" d="M1210.68,-669.575C1191.65,-654.791 1163.15,-632.33 1139,-612 1108.42,-586.257 1073.79,-554.93 1054.36,-537.144"/>
</g>
<!-- ActiveRecord::Base&#45;&gt;Label -->
<g id="edge24" class="edge"><title>ActiveRecord::Base&#45;&gt;Label</title>
<path fill="none" stroke="black" d="M1159.03,-677.847C1094.74,-668.511 999.932,-649.395 925,-612 886.956,-593.014 850.457,-558.396 831.168,-538.39"/>
</g>
<!-- ActiveRecord::Base&#45;&gt;Notification -->
<g id="edge28" class="edge"><title>ActiveRecord::Base&#45;&gt;Notification</title>
<path fill="none" stroke="black" d="M1282.72,-672.625C1323.77,-660.475 1382.11,-640.139 1428,-612 1503.1,-565.951 1566.19,-500.661 1511,-432 1494.39,-411.342 1122.82,-340.462 989.819,-315.656"/>
</g>
<!-- ActiveRecord::Base&#45;&gt;Project -->
<g id="edge50" class="edge"><title>ActiveRecord::Base&#45;&gt;Project</title>
<path fill="none" stroke="black" d="M1148.64,-684.034C1086.77,-678.297 1004.11,-661.025 950,-612 929.24,-593.189 921.499,-560.114 918.642,-540.015"/>
</g>
<!-- ActiveRecord::Base&#45;&gt;ProjectRoleUser -->
<g id="edge52" class="edge"><title>ActiveRecord::Base&#45;&gt;ProjectRoleUser</title>
<path fill="none" stroke="black" d="M1148.29,-684.78C987.621,-681.193 642.708,-667.113 539,-612 493.322,-587.726 464,-574.728 464,-523 464,-523 464,-523 464,-449 464,-403.814 459.912,-350.668 457.581,-324.032"/>
</g>
<!-- ActiveRecord::Base&#45;&gt;ProjectStatus -->
<g id="edge56" class="edge"><title>ActiveRecord::Base&#45;&gt;ProjectStatus</title>
<path fill="none" stroke="black" d="M1195.87,-670.563C1155.51,-653.322 1090.76,-625.658 1051.81,-609.016"/>
</g>
<!-- ActiveRecord::Base&#45;&gt;ReportedHours -->
<g id="edge58" class="edge"><title>ActiveRecord::Base&#45;&gt;ReportedHours</title>
<path fill="none" stroke="black" d="M1306.82,-678.574C1419.7,-666.943 1640.14,-642.564 1826,-612 1836.3,-610.305 1847.28,-608.243 1857.76,-606.148"/>
</g>
<!-- ActiveRecord::Base&#45;&gt;Requirement -->
<g id="edge62" class="edge"><title>ActiveRecord::Base&#45;&gt;Requirement</title>
<path fill="none" stroke="black" d="M1306.76,-678.647C1397.74,-668.318 1544.39,-646.781 1586,-612 1618.74,-584.635 1622,-565.669 1622,-523 1622,-523 1622,-523 1622,-449 1622,-408.458 1631.11,-388.215 1602,-360 1571.47,-330.415 1454.63,-316.55 1383.12,-310.712"/>
</g>
<!-- ActiveRecord::Base&#45;&gt;RequirementTemplate -->
<g id="edge66" class="edge"><title>ActiveRecord::Base&#45;&gt;RequirementTemplate</title>
<path fill="none" stroke="black" d="M1308.84,-679.559C1395.72,-670.495 1529.15,-650.584 1560,-612 1609.96,-549.516 1592.58,-505.065 1560,-432 1553.33,-417.035 1540.11,-404.531 1527.87,-395.433"/>
</g>
<!-- ActiveRecord::Base&#45;&gt;Role -->
<g id="edge72" class="edge"><title>ActiveRecord::Base&#45;&gt;Role</title>
<path fill="none" stroke="black" d="M1151.85,-681.443C993.043,-671.705 650.242,-646.877 610,-612 567.477,-575.146 564.748,-501.356 565.89,-468.03"/>
</g>
<!-- ActiveRecord::Base&#45;&gt;Status -->
<g id="edge76" class="edge"><title>ActiveRecord::Base&#45;&gt;Status</title>
<path fill="none" stroke="black" d="M1153.92,-680.07C1078.64,-672.065 962.93,-653.646 871,-612 822.742,-590.139 811.317,-579.489 776,-540 755.979,-517.614 739.525,-486.561 730.504,-467.674"/>
</g>
<!-- ActiveRecord::Base&#45;&gt;SubTask -->
<g id="edge78" class="edge"><title>ActiveRecord::Base&#45;&gt;SubTask</title>
<path fill="none" stroke="black" d="M1313.72,-682.61C1436.75,-676.062 1662.09,-658.011 1727,-612 1763.49,-586.131 1774,-567.732 1774,-523 1774,-523 1774,-523 1774,-305 1774,-256.997 1746.71,-205.477 1730.93,-179.703"/>
</g>
<!-- ActiveRecord::Base&#45;&gt;Task -->
<g id="edge98" class="edge"><title>ActiveRecord::Base&#45;&gt;Task</title>
<path fill="none" stroke="black" d="M1156.52,-678.95C1050.97,-668.07 865.593,-644.942 807,-612 732.871,-570.323 710.911,-547.607 681,-468 675.372,-453.022 675.402,-446.989 681,-432 684.706,-422.076 797.243,-293.962 806,-288 844.583,-261.73 897.595,-247.047 929.171,-240.101"/>
</g>
<!-- ActiveRecord::Base&#45;&gt;TaskUser -->
<g id="edge100" class="edge"><title>ActiveRecord::Base&#45;&gt;TaskUser</title>
<path fill="none" stroke="black" d="M1149.41,-683.313C980.199,-676.927 599.918,-657.813 479,-612 415.901,-588.093 356,-590.477 356,-523 356,-523 356,-523 356,-305 356,-293.669 365.313,-293.879 375,-288 427.249,-256.289 598.278,-198.346 671.85,-174.115"/>
</g>
<!-- ActiveRecord::Base&#45;&gt;TestCase -->
<g id="edge104" class="edge"><title>ActiveRecord::Base&#45;&gt;TestCase</title>
<path fill="none" stroke="black" d="M1314.18,-683.022C1443.65,-676.932 1687.73,-659.369 1759,-612 1797.34,-586.517 1812,-569.038 1812,-523 1812,-523 1812,-523 1812,-233 1812,-189.633 1807.5,-168.907 1772,-144 1717.94,-106.075 1256.03,-94.4435 1111.23,-91.7122"/>
</g>
<!-- ActiveRecord::Base&#45;&gt;UseCase -->
<g id="edge108" class="edge"><title>ActiveRecord::Base&#45;&gt;UseCase</title>
<path fill="none" stroke="black" d="M1269.77,-670.747C1359.48,-632.447 1571.81,-528.38 1488,-432 1466.12,-406.841 1245.04,-388.484 1151.47,-381.783"/>
</g>
<!-- ActiveRecord::Base&#45;&gt;UseCaseGroup -->
<g id="edge112" class="edge"><title>ActiveRecord::Base&#45;&gt;UseCaseGroup</title>
<path fill="none" stroke="black" d="M1220.35,-669.099C1190.46,-625.74 1111.32,-510.938 1081.55,-467.747"/>
</g>
<!-- ActiveRecord::Base&#45;&gt;UseCaseTemplate -->
<g id="edge114" class="edge"><title>ActiveRecord::Base&#45;&gt;UseCaseTemplate</title>
<path fill="none" stroke="black" d="M1244.3,-669.099C1275.77,-625.845 1358.98,-511.495 1390.58,-468.063"/>
</g>
<!-- ActiveRecord::Base&#45;&gt;User -->
<g id="edge128" class="edge"><title>ActiveRecord::Base&#45;&gt;User</title>
<path fill="none" stroke="black" d="M1151.52,-681.573C987.228,-671.862 624.983,-646.754 581,-612 515.664,-560.373 481.596,-500.461 529,-432 554.383,-395.342 608.499,-384.004 641.816,-380.52"/>
</g>
</g>
</svg>
